<?xml version="1.0" encoding="UTF-8" standalone="no"?>
<svg
   xmlns:dc="http://purl.org/dc/elements/1.1/"
   xmlns:cc="http://creativecommons.org/ns#"
   xmlns:rdf="http://www.w3.org/1999/02/22-rdf-syntax-ns#"
   xmlns:svg="http://www.w3.org/2000/svg"
   xmlns="http://www.w3.org/2000/svg"
   xmlns:sodipodi="http://sodipodi.sourceforge.net/DTD/sodipodi-0.dtd"
   xmlns:inkscape="http://www.inkscape.org/namespaces/inkscape"
   version="1.1"
   preserveAspectRatio="none"
   x="0px"
   y="0px"
   viewBox="0 0 61 47"
   id="svg8"
   sodipodi:docname="polygate.svg"
   inkscape:version="0.92.4 (unknown)"
   width="61"
   height="47">
  <metadata
     id="metadata14">
    <rdf:RDF>
      <cc:Work
         rdf:about="">
        <dc:format>image/svg+xml</dc:format>
        <dc:type
           rdf:resource="http://purl.org/dc/dcmitype/StillImage" />
        <dc:title></dc:title>
      </cc:Work>
    </rdf:RDF>
  </metadata>
  <defs
     id="defs12" />
  <sodipodi:namedview
     pagecolor="#ffffff"
     bordercolor="#666666"
     borderopacity="1"
     objecttolerance="10"
     gridtolerance="10"
     guidetolerance="10"
     inkscape:pageopacity="0"
     inkscape:pageshadow="2"
     inkscape:window-width="1366"
     inkscape:window-height="678"
     id="namedview10"
     showgrid="false"
     inkscape:zoom="5.3400704"
     inkscape:cx="52.311121"
     inkscape:cy="43.987566"
     inkscape:window-x="0"
     inkscape:window-y="27"
     inkscape:window-maximized="1"
     inkscape:current-layer="svg8" />
  <g
     id="g858"
     transform="matrix(0.62164907,-0.20769272,0.23837971,0.54162323,-15.528714,-3.845038)">
    <path
       style="fill:#0057db;fill-opacity:1;stroke:none"
       inkscape:connector-curvature="0"
       id="path2"
       d="m 91.709096,48.155169 q -0.95,-1.15 -1.9,-2.2 -0.95,-1 -1.95,-1.9 -0.95,-0.85 -2,-1.65 -0.95,-0.75 -2.05,-1.45 -1.15,-0.7 -2.45,-1.3 -1.2,-0.6 -2.5,-1 -1.25,-0.4 -2.55,-0.65 -1.3,-0.25 -2.65,-0.3 -1.2,-0.1 -2.45,0 -1.25,0.1 -2.45,0.35 -1.2,0.2 -2.4,0.55 -1.3,0.35 -2.6,0.75 -1.2,0.4 -2.4,0.9 -1.3,0.5 -2.55,1.05 -1.15,0.45 -2.25,0.95 -1.2,0.55 -2.35,1.15 -1,0.45 -1.95,1 -1.05,0.5 -2.05,1.05 -1.1,0.55 -2.1,1.1 -1.05,0.55 -2,1.15 -0.9,0.55 -1.75,1.05 -0.9,0.5 -1.8,1 -0.9,0.5 -1.8,0.95 -0.85,0.45 -1.75,0.9 -0.9,0.45 -1.8,0.9 -0.85,0.4 -1.75,0.8 -0.9,0.4 -1.8,0.8 -0.95,0.4 -1.85,0.8 -1.25,0.55 -2.5,1 -1.2,0.45 -2.4,0.8 -0.95,0.3 -1.9,0.6 -1.35,0.35 -2.75,0.65 -1.35,0.25 -2.75,0.4 -1.3,0.15 -2.6,0.2 -1.3,0.05 -2.6,0 -1.05,-0.05 -2.1,-0.2 -1.2,-0.2 -2.4000001,-0.45 -1.4,-0.35 -2.8,-0.8 -1.15,-0.4 -2.3,-0.95 0.2,0.15 0.4,0.35 1.15,0.95 2.45,1.7 1.35,0.75 2.8000001,1.35 1.55,0.6 3.15,1 1.4,0.3 2.9,0.55 1.5,0.2 3.1,0.3 1.5,0.1 3,0 1.6,-0.1 3.2,-0.3 1.15,-0.1 2.25,-0.3 1.2,-0.2 2.4,-0.35 1.95,-0.35 3.85,-0.8 1.35,-0.25 2.65,-0.6 1.1,-0.25 2.1,-0.5 1.1,-0.25 2.15,-0.55 1.75,-0.5 3.5,-1 1.7,-0.5 3.35,-0.95 1.65,-0.45 3.25,-0.85 1.05,-0.3 2.1,-0.55 1,-0.25 2.05,-0.55 0.95,-0.25 1.95,-0.5 1,-0.2 1.95,-0.45 0.95,-0.2 1.9,-0.4 0.9,-0.2 1.8,-0.4 0.9,-0.2 1.75,-0.4 0.9,-0.15 1.75,-0.35 1.2,-0.25 2.45,-0.45 1.2,-0.2 2.35,-0.4 0.75,-0.1 1.55,-0.25 1.45,-0.2 2.95,-0.3 1.1,-0.1 2.2,-0.15 1.45,-0.05 2.9,0 1.1,0 2.15,0.05 1.45,0.1 2.85,0.25 1.4,0.2 2.8,0.45 1.35,0.2 2.7,0.55 1.7,0.4 3.35,0.95 -0.7,-1.1 -1.5,-2.15 -0.75,-1.05 -1.5,-2 z" />
    <path
       id="path2-3"
       d="M 90.756247,71.79725 Q 90.151233,70.433814 89.519275,69.166679 88.873846,67.947696 88.153321,66.811542 87.467476,65.737011 86.671858,64.683688 85.95907,63.705459 85.088356,62.734965 84.169492,61.751 83.079231,60.82292 82.085272,59.921785 80.941124,59.186309 79.845126,58.464305 78.660563,57.873281 77.475999,57.282258 76.189396,56.870367 75.060719,56.45074 73.830003,56.210245 72.599286,55.96975 71.376306,55.887179 q -1.209509,-0.130721 -2.459434,-0.11699 -1.346226,-0.01321 -2.705924,0.02173 -1.263397,0.06188 -2.553737,0.220066 -1.386642,0.131241 -2.738605,0.324104 -1.228718,0.123505 -2.422756,0.308632 -1.303812,0.206335 -2.572945,0.474293 -1.084265,0.16392 -2.147322,0.437615 -1.145888,0.198599 -2.257096,0.458822 -1.207511,0.233278 -2.318719,0.493501 -1.15936,0.24675 -2.235889,0.568595 -1.014907,0.287166 -1.968191,0.539653 -1.001435,0.239016 -2.002869,0.478031 -1.001435,0.239015 -1.989398,0.429879 -0.939812,0.204336 -1.927775,0.395201 -0.987963,0.190864 -1.975926,0.381728 -0.92634,0.156186 -1.900831,0.298899 -0.974491,0.142714 -1.948983,0.285427 -1.022642,0.129242 -1.997133,0.271955 -1.351963,0.192863 -2.676982,0.289424 -1.276868,0.110033 -2.526793,0.123765 -0.995698,0.03294 -1.991396,0.06588 -1.394377,-0.02668 -2.823434,-0.114991 Q 19.866735,62.399412 18.478094,62.166652 17.185755,61.960836 15.92036,61.658718 14.654965,61.3566 13.416514,60.95818 12.418817,60.62712 11.448064,60.199758 10.34633,59.68383 9.2580675,59.11975 8.0041455,58.405481 6.7771674,57.594911 5.7774718,56.899851 4.8181918,56.060338 q 0.152188,0.19834 0.2909041,0.444831 0.8515049,1.22472 1.9013501,2.297252 1.097996,1.086004 2.3327095,2.054499 1.3310155,0.995439 2.7640685,1.811746 1.267394,0.666118 2.644562,1.311029 1.390639,0.59676 2.904524,1.124161 1.417583,0.500458 2.889053,0.808313 1.567773,0.334798 3.162489,0.573294 1.134414,0.213552 2.247621,0.317329 1.209509,0.130722 2.405546,0.309594 1.972188,0.188347 3.923169,0.26692 1.367434,0.122986 2.71366,0.136198 1.126679,0.05563 2.157056,0.08431 1.126679,0.05563 2.218679,0.04963 1.820001,-0.01 3.640001,-0.01999 1.771849,-0.02347 3.482075,-0.01225 1.710226,0.01121 3.35883,0.05711 1.092,-0.006 2.170528,0.03616 1.030377,0.02868 2.122378,0.02269 0.982226,0.01521 2.012603,0.04389 1.016906,0.07683 1.999132,0.09204 0.968754,0.06336 1.937509,0.126724 0.920603,0.04989 1.841207,0.09978 0.920604,0.04989 1.793056,0.08631 0.907132,0.09804 1.779585,0.13446 1.222981,0.08257 2.48064,0.226763 1.209509,0.130722 2.370867,0.247971 0.749208,0.105777 1.560038,0.176874 1.450263,0.198081 2.921734,0.505935 1.086263,0.200079 2.159054,0.44831 1.409848,0.342533 2.792752,0.781368 1.05932,0.296382 2.057017,0.627442 1.369432,0.486986 2.677242,1.008651 1.294336,0.569816 2.575202,1.187783 1.246186,0.556344 2.451957,1.257141 1.529356,0.843251 2.970145,1.817483 -0.377732,-1.247926 -0.865236,-2.474645 -0.439355,-1.213247 -0.905652,-2.330192 z"
       style="fill:#1af500;fill-opacity:1;stroke:none"
       inkscape:connector-curvature="0" />
    <path
       id="path2-3-6"
       d="m 84.03921,93.101888 q -0.237898,-1.47254 -0.526372,-2.85884 -0.31376,-1.34314 -0.721225,-2.625316 -0.389631,-1.213751 -0.890804,-2.434947 -0.440204,-1.127485 -1.035102,-2.287705 -0.63802,-1.185503 -1.456021,-2.360609 -0.731736,-1.124528 -1.650895,-2.1271 -0.876026,-0.977284 -1.871045,-1.850456 -0.995019,-0.873172 -2.134337,-1.5991 Q 72.768794,74.264621 71.63988,73.71867 70.510966,73.172718 69.349324,72.781456 68.212978,72.347065 67.000752,72.042068 65.702262,71.686497 64.378494,71.374061 63.140982,71.112196 61.852895,70.936603 60.478544,70.710432 59.122028,70.55268 57.902372,70.359242 56.70055,70.234223 55.387178,70.101762 54.091641,70.037723 53.00138,69.920155 51.90367,69.91413 50.744982,69.8144 49.604147,69.783096 q -1.227115,-0.08192 -2.36795,-0.113195 -1.183976,-0.0566 -2.306974,-0.01948 -1.054578,0.01926 -2.040727,0.0207 -1.029291,-0.02386 -2.058575,-0.04773 -1.029286,-0.02386 -2.033284,-0.09086 -0.960865,-0.0417 -1.964863,-0.108699 -1.003997,-0.06702 -2.007993,-0.13403 -0.935575,-0.08485 -1.914284,-0.194971 -0.978711,-0.110127 -1.957419,-0.220262 -1.021844,-0.135418 -2.000552,-0.245549 -1.356507,-0.157752 -2.662438,-0.401768 -1.262801,-0.218687 -2.475022,-0.523681 -0.971264,-0.221686 -1.94253,-0.44337 -1.34162,-0.380856 -2.701085,-0.830143 Q 17.879408,65.96293 16.59581,65.384248 15.398477,64.856136 14.251723,64.241764 13.104967,63.627391 12.008791,62.926751 11.128279,62.352557 10.298346,61.692095 9.3643007,60.912634 8.4555451,60.090039 7.4248332,59.080022 6.4446973,57.98374 5.654941,57.057033 4.9410501,56.000927 q 0.096668,0.230554 0.1680458,0.504242 0.5115814,1.401174 1.2537174,2.705678 0.7852693,1.329794 1.7326719,2.580766 1.0336684,1.301549 2.2116238,2.455853 1.056002,0.966883 2.223558,1.94121 1.192844,0.931194 2.522533,1.826697 1.243422,0.844927 2.587999,1.517321 1.430844,0.722972 2.912265,1.359676 1.042643,0.495372 2.09273,0.87919 1.136354,0.434396 2.24742,0.911924 1.859221,0.684325 3.725884,1.257094 1.291044,0.467129 2.58953,0.822701 1.075376,0.340687 2.064485,0.630791 1.075376,0.340687 2.132909,0.612946 1.762555,0.453764 3.525107,0.907538 1.719418,0.428478 3.370419,0.87481 1.650991,0.446322 3.233571,0.910501 1.057533,0.272259 2.089776,0.587659 0.989103,0.290103 2.046633,0.562372 0.945981,0.264818 1.935094,0.554922 0.963817,0.333234 1.909797,0.598054 0.920684,0.307948 1.841376,0.615902 0.877551,0.282663 1.755102,0.565325 0.877561,0.282664 1.711979,0.540039 0.852265,0.325794 1.686692,0.583173 1.161643,0.39126 2.34113,0.850944 1.136346,0.434393 2.229568,0.8435 0.69758,0.293065 1.463579,0.568283 1.352017,0.560838 2.696594,1.233235 0.999517,0.470085 1.973737,0.983299 1.276156,0.690236 2.501731,1.466746 0.948933,0.55635 1.829446,1.13055 1.200287,0.81964 2.332155,1.65712 1.10658,0.88061 2.187864,1.80436 1.063448,0.85533 2.051026,1.84006 1.264219,1.20487 2.409442,2.51388 -0.04751,-1.30298 -0.206578,-2.61339 -0.115941,-1.28514 -0.282452,-2.48401 z"
       style="fill:#0057db;fill-opacity:1;stroke:none"
       inkscape:connector-curvature="0" />
  </g>
  <text
     xml:space="preserve"
     style="font-style:normal;font-weight:normal;font-size:16.27709007px;line-height:0.89999998;font-family:sans-serif;letter-spacing:0px;word-spacing:0px;fill:#1af500;fill-opacity:1;stroke:none;stroke-width:0.40692729"
     x="-0.24530441"
     y="43.179848"
     id="text853"><tspan
       sodipodi:role="line"
       x="-0.24530441"
       y="43.179848"
       style="font-style:normal;font-variant:normal;font-weight:normal;font-stretch:normal;line-height:0.89999998;font-family:Loma;-inkscape-font-specification:Loma;fill:#1af500;fill-opacity:1;stroke-width:0.40692729"
       id="tspan864">polygate</tspan></text>
</svg>
